# xmcd
#
# Track frame offsets: 
#        150
#        17481
#        34725
#        49944
#        65361
#        79986
#        99855
#        115726
#        128034
#        143541
#        162990
#        180225
#        196412
#        214481
#        228684
#
# Disc length: 3258 seconds
#
# Revision: 0
# Processed by: cddbd v1.5PL3 Copyright (c) Steve Scherf et al.
# Submitted via: ExactAudioCopy v0.90b4
#
DISCID=c60cb80f
DTITLE=Various Artist - Hitz Country 2004, volume 2
DYEAR=2004
DGENRE=Country
TTITLE0=You'll Think of Me - Keith Urban
TTITLE1=Somebody  Reba McEntire
TTITLE2=I Can't Sleep - Clay Walker
TTITLE3=Guy Like Me - Pat Green
TTITLE4=I Wanna Make You Cry - Jeff Bates
TTITLE5=I'd Be Lyin' - Chris Cagle
TTITLE6=Last One Standing - Emerson Drive
TTITLE7=That's  A Woman - Mark Wills
TTITLE8=Didn't I - Rachel Proctor
TTITLE9=Constantly - Cross Canadian Ragweed
TTITLE10=Completely - Diamond Rio
TTITLE11=If Heartaches Had Wings - Rhonda Vincent
TTITLE12=Wild West Show - Big and Rich
TTITLE13=Loco - David Lee Murphy
TTITLE14=Reno Blues (Philadelphia Lawyer) - Merle Haggard and Willie Nel
TTITLE14=son
EXTD=
EXTT0=
EXTT1=
EXTT2=
EXTT3=
EXTT4=
EXTT5=
EXTT6=
EXTT7=
EXTT8=
EXTT9=
EXTT10=
EXTT11=
EXTT12=
EXTT13=
EXTT14=
PLAYORDER=
